<?xml version="1.0" encoding="utf-8"?>
<!-- Generator: Adobe Illustrator 24.0.1, SVG Export Plug-In . SVG Version: 6.00 Build 0)  -->
<svg version="1.1" xmlns="http://www.w3.org/2000/svg" xmlns:xlink="http://www.w3.org/1999/xlink" x="0px" y="0px"
	 viewBox="0 0 500 500" style="enable-background:new 0 0 500 500;" xml:space="preserve">
<style type="text/css">
	.st0{display:none;}
	.st1{display:inline;}
	.st2{fill:#FFFFFF;}
	.st3{fill:#ADBEC4;}
	.st4{fill:#0E3944;}
	.st5{fill:#EF6E4B;}
	.st6{fill:#FF8B66;}
	.st7{fill:#164353;}
	.st8{fill:#CFD8DC;}
	.st9{fill:#DB614D;}
	.st10{fill:#1A4850;}
	.st11{fill:#6097B2;}
	.st12{fill:#205260;}
	.st13{fill:#8B383E;}
	.st14{fill:#662C33;}
	.st15{fill:#CE364C;}
	.st16{fill:#F24052;}
	.st17{fill:#A02E44;}
	.st18{fill:#FFB878;}
	.st19{fill:#0C476B;}
	.st20{fill:#105E99;}
	.st21{fill:#225866;}
	.st22{fill:#8BBDDB;}
	.st23{fill:#3E6575;}
</style>
<g id="BACKGROUND" class="st0">
	<g class="st1">
		<rect y="0" class="st2" width="500" height="500"/>
	</g>
</g>
<g id="OBJECTS">
	<g>
		<path class="st3" d="M119.23,403.42h-55.1c-0.97,0-1.75-0.78-1.75-1.75v-0.96c0-0.97,0.78-1.75,1.75-1.75h55.1
			c0.97,0,1.75,0.78,1.75,1.75v0.96C120.98,402.63,120.2,403.42,119.23,403.42z"/>
		<path class="st3" d="M468.38,403.42h-15.08c-0.97,0-1.75-0.78-1.75-1.75v-0.96c0-0.97,0.78-1.75,1.75-1.75h15.08
			c0.97,0,1.75,0.78,1.75,1.75v0.96C470.13,402.63,469.35,403.42,468.38,403.42z"/>
		<path class="st3" d="M222.92,403.42h-55.1c-0.97,0-1.75-0.78-1.75-1.75v-0.96c0-0.97,0.78-1.75,1.75-1.75h55.1
			c0.97,0,1.75,0.78,1.75,1.75v0.96C224.68,402.63,223.89,403.42,222.92,403.42z"/>
		<path class="st3" d="M303.83,403.42h-55.1c-0.97,0-1.75-0.78-1.75-1.75v-0.96c0-0.97,0.78-1.75,1.75-1.75h55.1
			c0.97,0,1.75,0.78,1.75,1.75v0.96C305.58,402.63,304.8,403.42,303.83,403.42z"/>
		<path class="st3" d="M402.92,403.42h-75.11c-0.97,0-1.75-0.78-1.75-1.75v-0.96c0-0.97,0.78-1.75,1.75-1.75h75.11
			c0.97,0,1.75,0.78,1.75,1.75v0.96C404.67,402.63,403.89,403.42,402.92,403.42z"/>
	</g>
	<g>
		<path class="st4" d="M137.7,153.14c0,0-5.82-3.96-14.33-0.91c-8.51,3.05-10.42,14.51-8.33,23.82c2.1,9.3-9.62,41.06-9.62,41.06
			s6.09,8.57,27.38,5.29c0,0,15.87-28.85,14.69-49.55S137.7,153.14,137.7,153.14z"/>
		<path class="st5" d="M144.42,188.93c8-2.56,12.9,4.1,17.48,16.5c4.58,12.4,6.13,13.64,6.13,13.64l17.69,11.37l-1.47,6.63
			c0,0-16.84-6.59-20.91-10.79c-4.07-4.19-15.78-25.44-15.78-25.44L144.42,188.93z"/>
		<path class="st6" d="M105.42,269.02c0,0-3.47,17.58-2.9,44.04c0,0-13.68,20.17-2.39,77.72h5.92c0,0,4.84-48.96,8.54-62.23
			c3.7-13.27,17.37-17.34,18.11-57.68L105.42,269.02z"/>
		<path class="st6" d="M78.36,320.71c-3.44-11.34-12.28-30.33-34.97-56.07c0,0-1.35-0.7-3.18,0.42c-1.93,1.18-1.93,2.57-1.93,2.57
			s11.38,24.79,18.63,42.95c2.44,6.11,8.35,10.13,14.93,10.13H78.36z"/>
		<path class="st7" d="M119.66,342.64c0,0,0.08,8.46-5.47,8.6c-7.84,0.21-8.13-8.33-17.01-8.05c-8.88,0.28-27.2,2.5-33.03-11.38
			c-3.01-7.17,1.11-16.38-8.6-23.32c-9.71-6.94-5-14.71,0-18.87c5-4.15-2.15-8.7,3.05-10.83c1.24-0.5,2.46-0.44,3.6-0.07
			c0.67,0.23,1.29,0.56,1.89,0.95c2.75,1.83,4.69,5.02,4.69,5.02c14.71-40.29,40.9-45.61,40.9-45.61l25.9,8.94
			C136.2,310.72,119.66,342.64,119.66,342.64z"/>
		<path class="st8" d="M144.42,188.93c0,0-6.04,2.04-14.64,0.73c-8.6-1.31-11.39-6.7-17.43-3.23c-9.07,5.21-4.83,23.16-2.55,32.5
			c0.85,3.48,1.93,12.62-0.12,20.17c0,0,12.08,9.4,25.9,8.93l7.54-16.4C143.12,231.62,159.52,212,144.42,188.93z"/>
		<path class="st5" d="M129.07,173.87c0,0,1.01,8.49-2.14,16.22c0,0,4.48,6.62,8.76,2.26c0,0,0.39-7.78,5.2-16.59
			C144.12,169.87,129.07,173.87,129.07,173.87z"/>
		<g>
			<path class="st6" d="M122.2,174.16c0,0-3.78-2.39-3.36,1.3c0.5,4.28,4.67,5.11,5.11,3.62C124.4,177.58,122.2,174.16,122.2,174.16
				z"/>
			<path class="st6" d="M143.9,169.53c0,0,2.4-3.78,3.59-0.26c1.38,4.08-2.04,6.61-3.08,5.45
				C143.37,173.56,143.9,169.53,143.9,169.53z"/>
			<path class="st6" d="M136.09,186.95c-6.86,1.54-11.74-2.08-14.75-15.52c-1.55-6.93,1.02-11.98,8.71-13.7
				c7.69-1.72,11.87,1.81,13.43,8.74C146.71,180.91,143.17,185.36,136.09,186.95z"/>
			<path class="st9" d="M142.28,171.77c0.27,0.66-0.17,1.48-1,1.82c-0.83,0.34-1.72,0.08-2-0.58c-0.27-0.66,0.17-1.48,1-1.82
				C141.11,170.85,142,171.11,142.28,171.77z"/>
			<path class="st9" d="M128.25,175.31c0.11,0.71-0.52,1.4-1.4,1.53c-0.89,0.14-1.69-0.32-1.81-1.03c-0.11-0.71,0.52-1.4,1.4-1.53
				C127.33,174.14,128.14,174.6,128.25,175.31z"/>
			<g>
				<path class="st4" d="M137.5,165.51c-0.07,0-0.13-0.02-0.19-0.06c-1.17-0.78-2.84-0.37-2.85-0.36c-0.19,0.05-0.38-0.07-0.43-0.25
					c-0.05-0.19,0.07-0.38,0.25-0.43c0.08-0.02,1.99-0.5,3.42,0.46c0.16,0.11,0.2,0.33,0.1,0.49
					C137.72,165.46,137.61,165.51,137.5,165.51z"/>
			</g>
			<g>
				<path class="st4" d="M124.58,168.4c-0.06,0-0.12-0.02-0.18-0.05c-0.17-0.1-0.22-0.32-0.12-0.48c0.89-1.48,2.82-1.86,2.9-1.87
					c0.19-0.03,0.37,0.09,0.41,0.28c0.04,0.19-0.09,0.37-0.28,0.41c-0.02,0-1.7,0.34-2.43,1.55
					C124.82,168.34,124.7,168.4,124.58,168.4z"/>
			</g>
			<path class="st10" d="M137.8,169.27c0.19,0.85-0.04,1.63-0.51,1.73c-0.47,0.11-1.01-0.5-1.2-1.35c-0.19-0.85,0.04-1.63,0.51-1.73
				C137.07,167.82,137.61,168.42,137.8,169.27z"/>
			<path class="st10" d="M128.27,171.33c0.19,0.85-0.04,1.63-0.51,1.73c-0.47,0.11-1.01-0.5-1.2-1.35
				c-0.19-0.85,0.04-1.63,0.51-1.73C127.54,169.87,128.08,170.47,128.27,171.33z"/>
			<path class="st10" d="M131.35,179.4c0,0,4.41-0.36,6.35-2c0,0-0.53,3.44-2.93,3.68C132.37,181.32,131.35,179.4,131.35,179.4z"/>
			<path class="st10" d="M135.4,169.37c0,0,0.16-2.24,1.01-2.27c0.86-0.03,1.89,1.62,1.89,1.62l1.07-0.92l-1.18,0.43
				c0,0-1.05-1.73-1.87-1.55C135.16,166.93,135.4,169.37,135.4,169.37z"/>
			<path class="st10" d="M128.79,171.12c0,0-1.1-1.96-1.89-1.62c-0.79,0.34-1.01,2.27-1.01,2.27l-1.36-0.37l1.25-0.11
				c0,0,0.21-2.02,1.03-2.2C127.97,168.81,128.79,171.12,128.79,171.12z"/>
			<g>
				<path class="st9" d="M133.57,175.42l-0.35-0.67c0.57-0.3,0.62-0.71,0.56-0.99c-0.08-0.41-0.41-0.73-0.65-0.75
					c-0.14-0.01-0.26,0.11-0.35,0.35l-0.71-0.26c0.3-0.82,0.88-0.86,1.11-0.85c0.6,0.05,1.19,0.64,1.34,1.35
					C134.68,174.35,134.32,175.03,133.57,175.42z"/>
			</g>
			<path class="st4" d="M122.74,176.58c0,0-2.12-7.79-0.86-13.29c0,0,5.97-8.31,17.49-4.2c0,0,3.42,5.5,5.11,13.2
				c0,0,0.43-2.77-0.72-8.93c-1.15-6.16-6.61-9.99-14.11-8.75C122.16,155.84,114.14,163.29,122.74,176.58z"/>
		</g>
		<path class="st4" d="M134.82,157.36c0,0,0.46,2.03-1.52,7.27c0,0-1.42-1.49-3.09,0c-1.67,1.49-5.05,0.99-6.2,1.79
			c-1.15,0.8-1.15,2.64-1.15,2.64s-1-2.29,0-5.03c0,0-2.25,2.86-1.95,6.38c0,0-3.05-0.49-2.91-5.52c0.14-5.03,7.28-13.16,15.3-12.63
			c8.02,0.53,9.92,13.22,9.92,13.22s-0.73-0.57-1.88-0.32c0,0-0.18-2.69-1.98-6.07c0,0,0.83,2.44,0,5.08c0,0-2.23-1.17-3.99-0.8
			C135.38,163.36,136.46,161.23,134.82,157.36z"/>
		<path class="st6" d="M110.31,188.04c3.9-3.08,6.94,0.84,7.68,6.25c0.74,5.41-6.31,37.33-11.75,36.15
			c-2.1-0.45-2.96-8.82-2.96-8.82s2.13-8.97,3.5-22.48C107.43,192.93,108.28,189.64,110.31,188.04z"/>
		<path class="st6" d="M98.96,225.93c-5.25-5.01-14.67-21.61-17.06-30.07l3.99-1.6c0,0,12,17.17,17.47,21.5
			c5.47,4.33,7.4,9.15,4.95,13.28C105.87,233.16,100.07,226.98,98.96,225.93z"/>
		<g>
			<path class="st6" d="M83.54,184.78c-0.28,5.43,4.15,6.72,2.19,10.89c-0.41,0.86-1.02,1.32-1.66,1.54
				c-1.22,0.43-2.57,0.02-3.47-0.89c-2.1-2.13-5.36-4.38-7.09-5.37c-1.97-1.14-0.85-1.45-0.85-1.45c-0.19-0.09-0.38-0.17-0.56-0.24
				c-1.4-0.59-2.53-0.81-1.51-1.43c1.15-0.71,5.21,0.77,5.21,0.77c-5.29-3.52-6.72-2.66-5.76-3.41c1.32-1.02,6.34,1.33,6.49,1.4
				c-2.79-2.64-4.82-3.24-3.71-3.64c1.12-0.4,6.65,3.6,8.67,5.1c0.45,0.34,0.73,0.55,0.73,0.55
				C82.14,184.17,83.54,184.78,83.54,184.78z"/>
			<path class="st5" d="M81.48,188.06c0.45,0.34,0.73,0.55,0.73,0.55s-0.95,1.59,0.28,3.65C82.49,192.26,80.24,190.79,81.48,188.06z
				"/>
			<path class="st5" d="M76.84,191.17c-0.47-0.26-3.14-1.76-4.2-1.67c-0.19-0.09-0.38-0.17-0.56-0.24
				C72.8,188.32,76.31,190.79,76.84,191.17z"/>
		</g>
		<g>
			<path class="st11" d="M97.81,271.75c0,0.59-0.48,1.07-1.07,1.07c-0.59,0-1.07-0.48-1.07-1.07s0.48-1.07,1.07-1.07
				C97.33,270.68,97.81,271.16,97.81,271.75z"/>
			<path class="st11" d="M116.85,279.09c0,0.59-0.48,1.07-1.07,1.07s-1.07-0.48-1.07-1.07c0-0.59,0.48-1.07,1.07-1.07
				S116.85,278.5,116.85,279.09z"/>
			<path class="st11" d="M133.07,283.03c0,0.59-0.48,1.07-1.07,1.07c-0.59,0-1.07-0.48-1.07-1.07c0-0.59,0.48-1.07,1.07-1.07
				C132.59,281.97,133.07,282.44,133.07,283.03z"/>
			<path class="st11" d="M108.14,257.81c0,0.59-0.48,1.07-1.07,1.07c-0.59,0-1.07-0.48-1.07-1.07s0.48-1.07,1.07-1.07
				C107.66,256.75,108.14,257.22,108.14,257.81z"/>
			<circle class="st11" cx="110.67" cy="267.95" r="1.07"/>
			<path class="st11" d="M128.62,273.73c0,0.59-0.48,1.07-1.07,1.07c-0.59,0-1.07-0.48-1.07-1.07s0.48-1.07,1.07-1.07
				C128.14,272.67,128.62,273.15,128.62,273.73z"/>
			<path class="st11" d="M130.94,256.24c0,0.59-0.48,1.07-1.07,1.07c-0.59,0-1.07-0.48-1.07-1.07c0-0.59,0.48-1.07,1.07-1.07
				C130.46,255.17,130.94,255.65,130.94,256.24z"/>
			<circle class="st11" cx="118.81" cy="252.6" r="1.07"/>
			<path class="st11" d="M88.36,292.57c0,0.59-0.48,1.07-1.07,1.07s-1.07-0.48-1.07-1.07s0.48-1.07,1.07-1.07
				S88.36,291.98,88.36,292.57z"/>
			<path class="st11" d="M73.15,288.03c0,0.59-0.48,1.07-1.07,1.07c-0.59,0-1.07-0.48-1.07-1.07c0-0.59,0.48-1.07,1.07-1.07
				C72.67,286.96,73.15,287.44,73.15,288.03z"/>
			<path class="st11" d="M64.09,279.69c-0.19,0.29-0.52,0.48-0.9,0.48c-0.59,0-1.07-0.48-1.07-1.07c0-0.13,0.02-0.26,0.08-0.37
				C62.86,278.96,63.49,279.29,64.09,279.69z"/>
			<circle class="st11" cx="92.74" cy="306.49" r="1.07"/>
			<path class="st11" d="M66.51,321.61c0,0.59-0.48,1.07-1.07,1.07s-1.07-0.48-1.07-1.07s0.48-1.07,1.07-1.07
				S66.51,321.02,66.51,321.61z"/>
			<circle class="st11" cx="76.6" cy="312.44" r="1.07"/>
			<circle class="st11" cx="59.99" cy="304.33" r="1.07"/>
			<path class="st11" d="M74.46,336.28c0,0.59-0.48,1.07-1.07,1.07s-1.07-0.48-1.07-1.07c0-0.59,0.48-1.07,1.07-1.07
				S74.46,335.69,74.46,336.28z"/>
			<path class="st11" d="M84.62,280.16c0,0.59-0.48,1.07-1.07,1.07c-0.59,0-1.07-0.48-1.07-1.07s0.48-1.07,1.07-1.07
				C84.15,279.09,84.62,279.57,84.62,280.16z"/>
			<path class="st11" d="M94.88,262.19c0,0.59-0.48,1.07-1.07,1.07s-1.07-0.48-1.07-1.07c0-0.59,0.48-1.07,1.07-1.07
				S94.88,261.6,94.88,262.19z"/>
			<path class="st11" d="M106.48,247.23c0,0.59-0.48,1.07-1.07,1.07s-1.07-0.48-1.07-1.07c0-0.59,0.48-1.07,1.07-1.07
				S106.48,246.64,106.48,247.23z"/>
			<path class="st11" d="M82.97,269.02c0,0.59-0.48,1.07-1.07,1.07c-0.59,0-1.07-0.48-1.07-1.07s0.48-1.07,1.07-1.07
				C82.49,267.95,82.97,268.43,82.97,269.02z"/>
			<path class="st11" d="M95.95,251.53c0,0.59-0.48,1.07-1.07,1.07s-1.07-0.48-1.07-1.07c0-0.59,0.48-1.07,1.07-1.07
				S95.95,250.94,95.95,251.53z"/>
			<path class="st11" d="M75.53,299.59c0,0.59-0.48,1.07-1.07,1.07s-1.07-0.48-1.07-1.07s0.48-1.07,1.07-1.07
				S75.53,299,75.53,299.59z"/>
			<path class="st11" d="M62.12,290.17c0,0.59-0.48,1.07-1.07,1.07c-0.59,0-1.07-0.48-1.07-1.07c0-0.59,0.48-1.07,1.07-1.07
				C61.65,289.1,62.12,289.58,62.12,290.17z"/>
			<circle class="st11" cx="99.94" cy="286.96" r="1.07"/>
			<circle class="st11" cx="122.01" cy="292.57" r="1.07"/>
			<path class="st11" d="M122.01,262.19c0,0.59-0.48,1.07-1.07,1.07s-1.07-0.48-1.07-1.07c0-0.59,0.48-1.07,1.07-1.07
				S122.01,261.6,122.01,262.19z"/>
			<path class="st11" d="M134.84,264.42c0,0.59-0.48,1.07-1.07,1.07c-0.59,0-1.07-0.48-1.07-1.07c0-0.59,0.48-1.07,1.07-1.07
				C134.36,263.36,134.84,263.84,134.84,264.42z"/>
			<path class="st11" d="M109.21,300.66c0,0.59-0.48,1.07-1.07,1.07s-1.07-0.48-1.07-1.07c0-0.59,0.48-1.07,1.07-1.07
				S109.21,300.07,109.21,300.66z"/>
			<circle class="st11" cx="98.87" cy="319.64" r="1.07"/>
			<circle class="st11" cx="82.49" cy="322.68" r="1.07"/>
			<circle class="st11" cx="127.55" cy="306.49" r="1.07"/>
			<path class="st11" d="M113.87,314.58c0,0.59-0.48,1.07-1.07,1.07s-1.07-0.48-1.07-1.07s0.48-1.07,1.07-1.07
				S113.87,313.99,113.87,314.58z"/>
			<path class="st11" d="M91.68,338.41c0,0.59-0.48,1.07-1.07,1.07s-1.07-0.48-1.07-1.07c0-0.59,0.48-1.07,1.07-1.07
				S91.68,337.82,91.68,338.41z"/>
			<circle class="st11" cx="107.07" cy="332.86" r="1.07"/>
			<circle class="st11" cx="122.94" cy="326.57" r="1.07"/>
			<path class="st11" d="M116.85,344.93c0,0.59-0.48,1.07-1.07,1.07s-1.07-0.48-1.07-1.07s0.48-1.07,1.07-1.07
				S116.85,344.34,116.85,344.93z"/>
		</g>
		<g>
			<path class="st7" d="M115.68,401.14H98.15c-1.14-3.26,0.97-6.54,0.61-9.42c-0.61-4.86,2.22-2.18,2.22-2.18
				c0.5-5.23,7.85-6.22,7.77-3.89c-0.12,3.43,0.54,5.55,1.52,6.97c1.98,2.85,5.22,2.83,5.77,4.87c0.06,0.2,0.1,0.4,0.13,0.58
				C116.72,400.64,115.68,401.14,115.68,401.14z"/>
			<path class="st12" d="M116.18,398.08c-3.63,0.84-12-0.26-12.33-2.36c-0.32-2.04,4.19-3,6.43-3.09c1.98,2.85,5.22,2.83,5.77,4.87
				C116.1,397.71,116.15,397.91,116.18,398.08z"/>
		</g>
		<g>
			<path class="st7" d="M43.61,265.34c-1.87-1.7-4.9,1.11-4.9,1.11s1.63,2.42,0.58,3.4c-1.05,0.98-2.28-1.25-4.35-0.28
				c-0.17,0.08-0.34,0.18-0.51,0.29c-1.62,0.97-3.31,3-4.67,4.54c-0.28,0.31-0.54,0.6-0.79,0.85c-1.59,1.67-5.68,2.64-6.45-1.8
				c-0.77-4.44,4.23-9.65,9.71-14.43c5.48-4.79,9.03-1.94,9.03-1.94s1.24,2.01,1.24,3.26c0,1.24,1.11,1.87,1.73,3.05
				C44.86,264.58,43.61,265.34,43.61,265.34z"/>
			<path class="st12" d="M34.43,269.86c-1.62,0.97-3.31,3-4.67,4.54c-2.05,0.49-3.9,0.34-4.19-1.59c-0.7-4.66,8.6-10.59,7.86-7.32
				C33.05,267.14,33.7,268.71,34.43,269.86z"/>
		</g>
	</g>
	<g>
		<path class="st8" d="M359.06,393.56c-0.86-0.45-1.66-1.45-2.38-2.71c0,0-0.62-3.73,0-7.65c0.62-3.92-1.09-7.12-6.64-8.33
			c-5.4-1.17-8.6,1.43-7.35,12.28c0,0,0,0,0,0c-0.82,4.51-0.99,9.65,0.88,13.99h16.61C360.19,401.14,362.81,395.52,359.06,393.56z"
			/>
		<path class="st6" d="M373.64,335.08c0,0,0,10.83-6.11,21.93c-6.22,11.31-13.91,26.82-13.91,26.82s-5.12,5-8.38-3.28
			c0,0,2.3-28.82,7.57-39.36C358.09,330.64,373.64,335.08,373.64,335.08z"/>
		<path class="st6" d="M453.3,299.83c0,0,9.89,41.61,16.19,52.59c0,0-1.45,4.59-8.26,5.98c0,0-21.53-31.64-22.91-44.97
			C436.92,300.1,453.3,299.83,453.3,299.83z"/>
		<g>
			<path class="st13" d="M458.08,309.61c-2.63,6.34-22.96,6.68-22.96,6.68l-1.55-2.29l-0.41-0.6l-3.18-4.69
				c0,0-33.69-33.04-40.25-30.27h-0.01c-0.19,0.09-0.38,0.19-0.56,0.32c-4.51,3.22-4.93,20.86-10.26,50.47
				c-0.51,2.81-1.64,6.08-2.5,8.35c-0.1,0.24-0.19,0.48-0.28,0.7c-0.49,1.25-0.83,2.05-0.83,2.05c-20.56,8.33-27.35-8.13-27.35-8.13
				s0.24-0.48,0.6-1.24c0.08-0.17,0.17-0.36,0.26-0.56c1.08-2.38,2.8-6.5,2.78-8.67c-0.02-2.39-0.04-4.69-0.06-6.89
				c0-0.2,0-0.39-0.01-0.58c-0.03-7.12-0.02-13.3,0.02-18.67v-0.57c0.02-2.34,0.06-4.53,0.1-6.57v-0.58
				c0.18-9.36,0.48-15.61,0.8-19.77c0.01-0.19,0.03-0.39,0.04-0.57c0.57-7.01,1.17-7.69,1.17-7.69l-4.12-28.63h44.94
				c0,0,6.75,6.76,15.51,15.69c0.19,0.18,0.37,0.36,0.54,0.54c3.18,3.23,6.61,6.74,10.05,10.3c0.14,0.14,0.28,0.28,0.4,0.41
				c1.35,1.4,2.71,2.8,4.05,4.19c0.17,0.17,0.32,0.34,0.49,0.51c4.51,4.67,8.88,9.28,12.62,13.31c0.13,0.13,0.26,0.27,0.38,0.4
				c5.12,5.54,9.02,9.97,10.36,12.04c3.56,5.45,6.34,12.55,7.87,16.93c0,0,0,0,0,0.01c0.08,0.2,0.14,0.38,0.21,0.57
				C457.68,308.25,458.08,309.61,458.08,309.61z"/>
			<g>
				<path class="st14" d="M360.38,264.14c-1.83,2.17-4.5,3.5-7.94,3.97c0.01-0.19,0.03-0.39,0.04-0.57
					c3.24-0.47,5.75-1.73,7.47-3.77c3.09-3.64,2.59-8.56,2.58-8.6l0.56-0.07C363.11,255.32,363.62,260.31,360.38,264.14z"/>
				<path class="st14" d="M410.53,247.46c-0.18,0.01-0.34,0.02-0.52,0.02c-5,0-10.21-5.46-10.48-5.74l0.4-0.39
					c0.07,0.08,5.26,5.52,10.06,5.56C410.17,247.09,410.35,247.27,410.53,247.46z"/>
				<path class="st14" d="M376.41,337.6c-0.1,0.24-0.19,0.48-0.28,0.7c-3.33,1.22-6.38,1.72-9.17,1.72
					c-8.88,0-15.03-5.14-18.41-9.04c0.08-0.17,0.17-0.36,0.26-0.56C353.13,335.49,362.36,342.96,376.41,337.6z"/>
				<path class="st14" d="M388.48,268.14c0.74,3.19,1.22,6.66,1.24,10.31c-0.19,0.09-0.38,0.19-0.56,0.32
					c-0.02-16.76-9.73-29.84-9.84-29.99l0.44-0.33c0.09,0.11,5.84,7.88,8.56,19.11c1.13-0.74,1.9-1.81,2.22-3.19
					c1.4-5.88-4.96-15.5-5.02-15.6l0.46-0.31c0.27,0.41,6.55,9.91,5.11,16.03C390.72,266.1,389.83,267.31,388.48,268.14z"/>
				<path class="st14" d="M438.52,276.58c-1.65,1.8-3.21,3.33-3.35,3.46l-0.3,0.3l-0.14-0.4c-2.18-5.7-16.17-18.04-16.31-18.16
					l-0.17-0.16l2.33-3.86c0.14,0.14,0.28,0.28,0.4,0.41l-1.95,3.24c2.72,0.94,4.65,1.11,6.01,0.94c0.17,0.17,0.32,0.34,0.49,0.51
					c-0.46,0.08-0.94,0.12-1.45,0.12c-1.25,0-2.69-0.26-4.3-0.74c3.18,2.86,13.05,12.01,15.31,17.11c0.88-0.87,1.99-2.01,3.06-3.18
					C438.28,276.31,438.4,276.44,438.52,276.58z"/>
				<path class="st14" d="M361.76,314.76l-0.22,0.04c-0.21,0.06-2.73,0.58-5.63,0.58c-1.45,0-2.99-0.13-4.37-0.52
					c0-0.2,0-0.39-0.01-0.58c3.66,1.05,8.56,0.24,9.67,0.03l-0.93-23.1c-0.52,1.27-1.55,3-3.49,3.95c-0.92,0.47-1.95,0.69-3.09,0.69
					c-0.68,0-1.39-0.08-2.14-0.24v-0.57c1.92,0.44,3.59,0.32,4.97-0.38c2.35-1.17,3.29-3.66,3.57-4.65
					c-1.85,0.28-5.6-0.67-8.45-1.54v-0.58c3.08,0.93,7.24,2.01,8.74,1.49l0.36-0.12L361.76,314.76z"/>
				<path class="st14" d="M456.96,306.12c-3.23,3.19-9.85,8.06-20.03,8.06c-1.08,0-2.2-0.06-3.36-0.18l-0.41-0.6
					c12.38,1.42,20.14-4.39,23.59-7.85C456.83,305.75,456.89,305.93,456.96,306.12z"/>
			</g>
		</g>
		<path class="st15" d="M402.78,109.49c0,0-1.24-2.84-6.45-2.85c-4.02,0-5.56,2.22-5.56,2.22c-2.41,7.03-4.99,33.96-5.92,34.91
			c-0.47,0.49-30.3,20.57-30.3,20.57c16.19,0.3,26.29,20.25,26.29,20.25c0.52-6.56,18.8-32.54,19-34.85
			C400.21,145.38,407.94,125.86,402.78,109.49z"/>
		<path class="st15" d="M351,250.26c0,0-0.15,5.62,1.67,5.99c1.82,0.37,16.62,4.75,33.64-2.99c17.02-7.74,19.98-13.48,14.99-17.73
			C396.3,231.27,351,250.26,351,250.26z"/>
		<path class="st16" d="M344.18,168.24c0,0-15.49-1.83-24.37,2.01c0,0-2.48,10.99,9.73,35.59c12.2,24.6,9.37,40.09,23.13,45.92
			c12.2,5.17,48.17-10.22,49.3-15.32c2.84-12.85-19.15-35.39-20.54-48.46C380.04,174.92,367.27,155.28,344.18,168.24z"/>
		<path class="st15" d="M319.81,170.25c-10.83,3.84-23,16-23.02,21.86c-0.02,5.86,10.16,8.12,10.16,8.12l16.68-8.12
			c0,0,4.77-3.33,1.73-13.04C322.32,169.35,319.81,170.25,319.81,170.25z"/>
		<g>
			<path class="st8" d="M364.29,181.08c-3.23,0-7.25-1.16-9.74-2.94c-1.37-0.98-2.19-2.08-2.37-3.19c-0.61-3.85,3.13-5.8,3.29-5.88
				l0.5,0.99c-0.13,0.07-3.18,1.68-2.7,4.72c0.13,0.81,0.79,1.66,1.92,2.46c2.79,1.99,7.62,3.16,10.76,2.6
				c1.42-0.25,2.34-0.76,2.75-1.51c0.5-0.92,0.07-1.97,0.07-1.98l1.02-0.44c0.03,0.06,0.65,1.53-0.11,2.93
				c-0.58,1.07-1.77,1.78-3.54,2.09C365.57,181.03,364.94,181.08,364.29,181.08z"/>
		</g>
		<g>
			<path class="st8" d="M350.56,192.79c-2.4,0-6.37-1-6.93-4.93c-0.28-2-0.1-3.67,0.06-5.14c0.24-2.17,0.43-3.88-0.84-5.93
				c-2.09-3.39-4.93-3.61-5.05-3.62l0.07-1.11c0.14,0.01,3.52,0.25,5.92,4.15c1.46,2.38,1.24,4.45,1,6.64
				c-0.16,1.48-0.33,3-0.06,4.86c0.6,4.24,6.01,3.98,6.24,3.97l0.07,1.11C350.88,192.79,350.73,192.79,350.56,192.79z"/>
		</g>
		<path class="st15" d="M353.93,172.87c0,0,8.19-5.58,6.25-11.61c-1.94-6.04-28.31-5.62-35.11,1.6
			c-6.8,7.22,14.71,12.01,14.71,12.01C341.44,171.5,352.08,171.13,353.93,172.87z"/>
		<path class="st17" d="M339.21,171.92c-3.89-1.32-6.19-4.12-5.36-7.36c0.83-3.24,17.54-3.32,20.7-0.74
			C357.72,166.41,353.26,176.69,339.21,171.92z"/>
		<path class="st5" d="M337.36,162.82c0,0,3.44,5.87,1.85,9.1c0,0,11.79,4.07,11.79-2.53c0,0-2.22-4.95-1.38-8.14L337.36,162.82z"/>
		<g>
			<path class="st18" d="M333.43,157.69c0,0-5.79-9.28-5.26-18.14c0.27-4.43,2.55-6.17,2.55-6.17s-1.84-2.56,0.13-6.47
				c0,0,2.73,3.16,12.31,2.16c9.24-0.96,10.16,5.62,10.16,5.62c6.6,0.98,2.15,20.95-2.46,22.99H333.43z"/>
			<path class="st6" d="M330.97,149.12c0,0-3.33-3.32-3.74,0.56c-0.47,4.5,3.61,6.31,4.41,4.88
				C332.44,153.14,330.97,149.12,330.97,149.12z"/>
			<path class="st6" d="M354.29,149.36c0,0,3.33-3.32,3.74,0.56c0.47,4.5-3.61,6.31-4.41,4.88
				C352.82,153.37,354.29,149.36,354.29,149.36z"/>
			<path class="st6" d="M342.28,165.43c-7.39,0-11.56-4.83-11.56-19.3c0-7.47,3.8-12.05,12.08-12.05c8.28,0,11.76,4.58,11.76,12.05
				C354.55,161.68,349.91,165.43,342.28,165.43z"/>
			<path class="st9" d="M352.11,151.29c0.13,0.74-0.52,1.48-1.45,1.64c-0.93,0.16-1.79-0.31-1.92-1.05
				c-0.13-0.74,0.52-1.48,1.45-1.64C351.12,150.07,351.98,150.54,352.11,151.29z"/>
			<path class="st9" d="M336.91,151.69c-0.05,0.75-0.85,1.31-1.79,1.25c-0.94-0.06-1.66-0.72-1.61-1.47
				c0.05-0.75,0.85-1.31,1.79-1.25C336.24,150.28,336.96,150.94,336.91,151.69z"/>
			<g>
				<path class="st18" d="M348.85,143.52c-0.1,0.01-0.2-0.01-0.28-0.07c-1.18-0.9-2.94-0.58-2.97-0.58c-0.2,0.03-0.39-0.09-0.43-0.3
					c-0.04-0.2,0.09-0.39,0.29-0.43c0.08-0.02,2.12-0.38,3.55,0.72c0.16,0.12,0.19,0.36,0.07,0.52
					C349.03,143.46,348.94,143.51,348.85,143.52z"/>
			</g>
			<g>
				<path class="st18" d="M334.71,143.58c-0.09-0.01-0.18-0.06-0.24-0.13c-0.13-0.16-0.11-0.39,0.05-0.52
					c1.4-1.15,3.45-0.84,3.53-0.83c0.2,0.03,0.34,0.22,0.31,0.42c-0.03,0.2-0.23,0.34-0.42,0.31c-0.01,0-1.81-0.26-2.95,0.67
					C334.91,143.56,334.81,143.59,334.71,143.58z"/>
			</g>
			<path class="st10" d="M348.09,147.7c0,0.92-0.41,1.66-0.92,1.66c-0.51,0-0.92-0.74-0.92-1.66c0-0.92,0.41-1.66,0.92-1.66
				C347.68,146.03,348.09,146.78,348.09,147.7z"/>
			<path class="st10" d="M338.22,147.7c0,0.92-0.41,1.66-0.92,1.66c-0.51,0-0.92-0.74-0.92-1.66c0-0.92,0.41-1.66,0.92-1.66
				C337.81,146.03,338.22,146.78,338.22,147.7z"/>
			<path class="st18" d="M332.98,135.68c0,0,7.87,2.88,19.16,2.07c0,0,2.41,3,2.12,13.59c0,0,6.61-19.07-12.69-19.07
				c-19.3,0-10.6,18.65-10.6,18.65S329.39,139.25,332.98,135.68z"/>
			<g>
				<path class="st9" d="M342.74,152.63l-0.55-0.56l1.46-1.45c-1.42-2-1.41-6.64-1.41-6.85l0.78,0c0,0.05-0.01,5.04,1.44,6.61
					l0.26,0.28L342.74,152.63z"/>
			</g>
			<path class="st10" d="M337.84,155.05c0,0,7.27,0.31,10.94-0.66c0,0,0.65,5.29-4.99,5.55
				C337.84,160.21,337.84,155.05,337.84,155.05z"/>
		</g>
		<path class="st8" d="M368.92,175.04c1.39-0.26,1.25,3.37,0,2.32C367.67,176.31,367.53,175.3,368.92,175.04z"/>
		<path class="st8" d="M352.18,192.64c-0.21,1.4-3.6,0.07-2.19-0.76C351.39,191.04,352.39,191.24,352.18,192.64z"/>
		<path class="st5" d="M337.28,200.22c0,0-2.2,5.65-2.08,8.84c0.13,3.19,1.17,2.78,1.17,2.78s-1.67,0.66-1.99,2.5
			c-0.32,1.84,4.33,3.19,4.65,3.19s3.6-1.25,3.6-1.25l0.69-10.44l-2.9-1.82L337.28,200.22z"/>
		<path class="st6" d="M339.04,199.49c0,0,4.01,2.5,5.57,4.02c1.55,1.53,0.67,13.32,0,13.88c-0.67,0.56-5.78,1.7-6.76,1.06
			c-0.98-0.64,0.38-4.11,0.38-4.11s2.57-0.56,2.2,0.42c-0.37,0.97,0,1.8,0,1.8l1.05-0.42c0,0-0.52-2.64,0-4.58
			c0.52-1.94-3.62-3.99-4.12-7.55C336.86,200.46,339.04,199.49,339.04,199.49z"/>
		<path class="st15" d="M297.45,193.74c-1.28-5.55,4.22-7.51,11.88-6.56c8.88,1.1,27.12,3.42,31.09,13.04c0,0,1.3,3.79-2.06,5.62
			C329,210.93,299.87,204.16,297.45,193.74z"/>
		<path class="st17" d="M325.24,190.06c0,0-10.59-4.4-15.86-4.84C304.11,184.78,316.67,189.38,325.24,190.06z"/>
		<g>
			<path class="st6" d="M404.59,94.76c-0.8,0.91-2.12,4.45-2.12,4.45c-0.56,2.98-0.88,4.62-1.92,5.98
				c-1.03,1.37-0.49,3.77-0.49,3.77s-4.04,2.08-7.44-0.49c0,0,0.36-2.39,0-3.06c-0.7-1.35-2.94-2.08-3.71-4.81
				c-0.77-2.74-3.06-5.8-3.06-5.8s0.66-1.42,1.85-0.56c1.21,0.88,1.98,3.06,2.63,3.29c0.13,0.04,0.27,0.08,0.4,0.09
				c0,0,0.01,0,0.03,0.01c0.5,0.07,1.01-0.04,1.32-0.34c0.02-0.01,0.06-0.03,0.08-0.07c1.1-1.28,1.35-5.03,1.31-6.71
				c-0.07-2.33,0.02-5.55,1.44-5.01c1.42,0.54,0.12,1.84,1.22,6.98l0.53,0.07c0.1,0.37,1.08-3.12,1.31-6.39
				c0.17-2.25,1.64-1.42,1.97-0.71c0.33,0.71-0.17,2.95-0.27,4.59c-0.08,1.08-0.17,2.2-0.22,2.86l0.62,0.34
				c2.24-3.91,1.48-5.53,2.79-5.61c1.3-0.08,0.83,3.22,0.13,4.47c-0.3,0.54-0.59,1.68-0.82,2.79c2.3-2.65,2.04-4.04,3.1-3.87
				C406.37,91.22,405.39,93.85,404.59,94.76z"/>
			<path class="st5" d="M394.66,100.88c-0.78-2.14-3.55-3.12-3.9-3.23c0.5,0.07,1.01-0.04,1.32-0.34
				C394.81,98.53,394.66,100.88,394.66,100.88z"/>
		</g>
		<g>
			<path class="st8" d="M346.43,384.85c0,0-1.54-3.14-0.17-4.48c1.37-1.35,2.98,1.15,5.32,0.6c2.34-0.56,2.88-2.22,3.49,0.05
				C355.69,383.28,354.95,390.4,346.43,384.85z"/>
			<path class="st3" d="M355.24,384.71c0,0-6.28,2.23-9.54,0l0.83,2.72c0,0,6.83,0.72,7.77-1L355.24,384.71z"/>
			<path class="st3" d="M355.16,388.09c0,0-5.75-0.8-8.53,0.63v1.35c0,0,7.5-1.75,9.93,0L355.16,388.09z"/>
			<path class="st3" d="M346.35,392.87c0,0,1.12-2.72,4.62-2.91c3.5-0.2,5.86,1.73,5.86,1.73S351.28,389.4,346.35,392.87z"/>
		</g>
		<g>
			<path class="st8" d="M494.44,355.09c-11.05,14.74-26.08,17.58-26.08,17.58c-4.36-3.49-4.47-7.62-4.47-7.62s-4.21-3.75-4.76-5.55
				c-0.56-1.8,3.61-7.22,6.11-6.66c1.72,0.38,2.72,1.75,3.18,2.56c-2.07-4.65-0.41-6.27,2.52-5.87c3.05,0.41,0.17,1.13,2.35,3.59
				c0.16,0.18,0.33,0.32,0.52,0.46c0.4,0.28,0.88,0.47,1.42,0.57c0.48,0.09,1.01,0.11,1.57,0.08c0.29-0.01,0.59-0.04,0.89-0.09
				c0.57-0.09,1.14-0.23,1.74-0.42c0.92-0.29,1.88-0.7,2.81-1.21c3.82-2.09,5.43-2.8,8.34-2.05c2.9,0.73,2.85,2.93,2.85,2.93
				L494.44,355.09z"/>
			<path class="st3" d="M494.44,355.09c-11.05,14.74-26.08,17.58-26.08,17.58c7.67-3.3,14.72-7.62,19.54-12.93
				C492.71,354.42,494.44,355.09,494.44,355.09z"/>
			<g>
				<path class="st3" d="M473.8,353.57c0.4,0.28,0.88,0.47,1.42,0.57c-2.92,0.59-3.13,3.2-3.13,3.2l-1.24-0.4
					C471.12,353.81,473.59,353.58,473.8,353.57z"/>
				<path class="st3" d="M475.77,357.65l-1.3,0.04c-0.49-1.84,0.14-2.94,0.75-3.55c0.48,0.09,1.01,0.11,1.57,0.08
					C475.25,355.74,475.77,357.65,475.77,357.65z"/>
				<path class="st3" d="M478.98,356.94l-1.29,0.17c-0.5-1.31-0.36-2.29-0.01-2.98c0.57-0.09,1.14-0.23,1.74-0.42
					C478.36,355.29,478.98,356.94,478.98,356.94z"/>
			</g>
		</g>
		<path class="st15" d="M355.36,220.03c0,0,2.85,15.39-2.91,21.52c-5.77,6.13-1.95,1.09-0.23-6.81
			C353.93,226.83,352.62,218.5,355.36,220.03z"/>
		<path class="st15" d="M381.96,213.16c0,0,9.09,2.99,13.84,11.38C395.81,224.54,389.46,210.87,381.96,213.16z"/>
	</g>
	<g>
		<g>
			<path class="st6" d="M145.91,98.85c1.21,0.02,4.72,1.42,4.72,1.42c2.58,1.59,4.01,2.45,5.72,2.59c1.71,0.15,2.4,3.08,2.4,3.08
				s6.72,1.47,7.1-2.77c0,0-3.76-5.32-4.02-6.04c-0.53-1.43,0.44-3.57-1.07-5.98c-1.52-2.41-2.24-6.16-2.24-6.16s-1.49-0.47-1.66,1
				c-0.16,1.49,0.94,3.52,0.67,4.16c-0.06,0.13-0.12,0.25-0.2,0.36c0,0-0.01,0.01-0.01,0.03c-0.29,0.42-0.71,0.72-1.14,0.75
				c-0.02,0.01-0.06,0.02-0.1,0.01c-1.68-0.04-4.64-2.37-5.85-3.53c-1.68-1.61-4.13-3.71-4.68-2.29c-0.55,1.42,1.28,1.33,4.36,5.59
				l-0.31,0.44c0.2,0.32-3.04-1.3-5.62-3.32c-1.78-1.39-2.16,0.26-1.85,0.98c0.3,0.72,2.3,1.86,3.58,2.88
				c0.85,0.67,1.74,1.35,2.27,1.76l-0.16,0.69c-4.4-0.96-5.09-2.62-6.03-1.7c-0.93,0.91,1.83,2.78,3.23,3.1
				c0.6,0.14,1.64,0.69,2.62,1.26c-3.51-0.08-4.37-1.2-4.95-0.31C142.1,97.79,144.7,98.83,145.91,98.85z"/>
			<path class="st5" d="M157.11,95.6c-1.07-2.01,0.07-4.73,0.22-5.06c-0.29,0.42-0.71,0.72-1.14,0.75
				C155.27,94.13,157.11,95.6,157.11,95.6z"/>
		</g>
		<g>
			<path class="st6" d="M343.77,98.85c-1.21,0.02-4.72,1.42-4.72,1.42c-2.58,1.59-4.01,2.45-5.72,2.59c-1.71,0.15-2.4,3.08-2.4,3.08
				s-6.72,1.47-7.1-2.77c0,0,3.76-5.32,4.02-6.04c0.53-1.43-0.44-3.57,1.07-5.98c1.52-2.41,2.24-6.16,2.24-6.16s1.49-0.47,1.66,1
				c0.16,1.49-0.94,3.52-0.67,4.16c0.06,0.13,0.12,0.25,0.2,0.36c0,0,0.01,0.01,0.01,0.03c0.29,0.42,0.71,0.72,1.14,0.75
				c0.02,0.01,0.06,0.02,0.1,0.01c1.68-0.04,4.64-2.37,5.85-3.53c1.68-1.61,4.13-3.71,4.68-2.29c0.55,1.42-1.28,1.33-4.36,5.59
				l0.31,0.44c-0.2,0.32,3.04-1.3,5.62-3.32c1.78-1.39,2.16,0.26,1.85,0.98c-0.3,0.72-2.3,1.86-3.58,2.88
				c-0.85,0.67-1.74,1.35-2.27,1.76l0.16,0.69c4.4-0.96,5.09-2.62,6.03-1.7c0.93,0.91-1.83,2.78-3.23,3.1
				c-0.6,0.14-1.64,0.69-2.62,1.26c3.51-0.08,4.37-1.2,4.95-0.31C347.59,97.79,344.98,98.83,343.77,98.85z"/>
			<path class="st5" d="M332.57,95.6c1.07-2.01-0.07-4.73-0.22-5.06c0.29,0.42,0.71,0.72,1.14,0.75
				C334.41,94.13,332.57,95.6,332.57,95.6z"/>
		</g>
		<path class="st4" d="M284.67,302.69l-12.92-79.99l-25.87,2.89l-25.87-2.89l-12.92,79.99l-6.2,77.58c0,0,1.97,6.43,14.88,1.99
			c0,0,9.57-71.96,11.05-73.54c1.48-1.58,16.68-48.59,16.68-48.59h4.76c0,0,15.2,47,16.68,48.59c1.48,1.58,11.05,73.54,11.05,73.54
			c12.9,4.44,14.88-1.99,14.88-1.99L284.67,302.69z"/>
		<path class="st19" d="M237.74,145.24c1.63,1.59,9.67,4.46,13.92,0l2.88,2.83c0,0-3.28,7.72-9.04,7.99
			c-5.76,0.27-9.92-6.87-9.92-6.87L237.74,145.24z"/>
		<path class="st19" d="M260.5,144.37c9.62-4.14,40.71-15.15,40.71-15.15s20.9-26.18,25.16-30.07c0,0,4.63,0.83,5.98,6.59
			c0,0-13.46,28.81-20.77,37.06c-7.31,8.25-44.36,26.09-44.36,26.09L260.5,144.37z"/>
		<path class="st18" d="M226.82,143.78c2.86-1.81,17.23,7.8,17.23,7.8s18.68-9.92,23.07-8c0,0,3.95,5.29,5.54,18.88
			c1.59,13.59,1.69,69.54,1.69,69.54s-12.56,4.44-29.55,4.44c-19.37,0-29.79-5.55-29.79-5.55S211.56,153.43,226.82,143.78z"/>
		<path class="st5" d="M238.49,142.32c0,0,2.07,6.51,0,9.02c0,0,2.15,4.51,6.01,4.71c4.46,0.23,6.01-4.71,6.01-4.71
			s-2.36-6.29,0-8.5L238.49,142.32z"/>
		<g>
			<path class="st13" d="M233.34,135.92c0,0-4.36-8.38-3.49-17.34c0.86-8.96,14.36-11.01,23.45-6.61c0,0-2.7-2.64-1.64-3.37
				c1.06-0.73,2.88,3.96,2.88,3.96s2.87-0.88,3.31,0c0.44,0.88-2.94,1.36-2.94,1.36s5.87,3.25,0.39,20.58L233.34,135.92z"/>
			<path class="st6" d="M232.68,130.61c0,0-3.25-3.24-3.65,0.55c-0.46,4.39,3.52,6.16,4.3,4.76
				C234.11,134.52,232.68,130.61,232.68,130.61z"/>
			<path class="st6" d="M255.42,130.84c0,0,3.25-3.24,3.65,0.55c0.46,4.39-3.52,6.16-4.3,4.76
				C253.98,134.75,255.42,130.84,255.42,130.84z"/>
			<path class="st6" d="M243.71,146.5c-7.2,0-11.27-4.71-11.27-18.82c0-7.28,3.7-11.75,11.77-11.75c8.07,0,11.47,4.47,11.47,11.75
				C255.68,142.85,251.15,146.5,243.71,146.5z"/>
			<path class="st9" d="M253.29,132.72c0.13,0.72-0.51,1.44-1.41,1.6c-0.91,0.16-1.74-0.3-1.87-1.03c-0.13-0.72,0.51-1.44,1.41-1.6
				C252.33,131.53,253.17,131.99,253.29,132.72z"/>
			<path class="st9" d="M238.47,133.11c-0.05,0.73-0.83,1.28-1.75,1.22c-0.92-0.06-1.62-0.7-1.57-1.44
				c0.05-0.73,0.83-1.28,1.75-1.22C237.82,131.73,238.52,132.38,238.47,133.11z"/>
			<g>
				<path class="st13" d="M250,125.39c-0.1,0-0.19-0.04-0.26-0.11c-1-1.05-2.75-1-2.77-1c-0.19,0-0.36-0.15-0.37-0.35
					c-0.01-0.2,0.15-0.36,0.35-0.37c0.08,0,2.1-0.05,3.32,1.23c0.14,0.14,0.13,0.37-0.01,0.51
					C250.18,125.36,250.09,125.39,250,125.39z"/>
			</g>
			<g>
				<path class="st13" d="M236.43,125.39c-0.09,0-0.18-0.03-0.25-0.1c-0.14-0.14-0.15-0.37-0.01-0.51c1.22-1.28,3.24-1.23,3.32-1.23
					c0.2,0.01,0.35,0.17,0.35,0.37c-0.01,0.2-0.18,0.35-0.37,0.35c-0.01,0-1.78-0.04-2.77,1
					C236.62,125.36,236.53,125.39,236.43,125.39z"/>
			</g>
			<path class="st10" d="M249.38,129.22c0,0.89-0.4,1.62-0.9,1.62c-0.5,0-0.9-0.73-0.9-1.62c0-0.89,0.4-1.62,0.9-1.62
				C248.97,127.59,249.38,128.32,249.38,129.22z"/>
			<path class="st10" d="M239.75,129.22c0,0.89-0.4,1.62-0.9,1.62c-0.5,0-0.9-0.73-0.9-1.62c0-0.89,0.4-1.62,0.9-1.62
				C239.35,127.59,239.75,128.32,239.75,129.22z"/>
			<path class="st10" d="M239.75,138.79c0,0,6.35,0.82,9.62-0.75c0,0-1.85,4.33-5.32,3.94
				C240.59,141.59,239.75,138.79,239.75,138.79z"/>
			<path class="st13" d="M254.93,132.43c0,0-0.22-7.84-3.28-13.86c0,0-5.38,2.49-6.56,1.9c-1.18-0.59,1.13-1.9,1.13-1.9
				s-8.87,2.93-9.41,2.34c-0.53-0.59,2.94-2.34,2.94-2.34l-5.53,1.9c0,0-1.7,7.05-1,11.96c0,0-2.38-4.1-2.67-6.93
				c-0.29-2.83,0.95-10.9,9.28-11.49c8.33-0.59,13,1.3,15.07,5.13C256.96,122.97,256.71,127.67,254.93,132.43z"/>
			<g>
				<path class="st9" d="M244.96,136.52c-0.7,0-1.41-0.18-1.63-0.24l0.2-0.74c0.76,0.21,1.94,0.33,2.2,0.03
					c0.09-0.11,0.05-0.35-0.1-0.67c-1.04-2.21-1.26-7.82-1.27-8.06l0.77-0.03c0,0.06,0.22,5.69,1.19,7.76
					c0.3,0.63,0.29,1.14-0.01,1.49C246.03,136.42,245.5,136.52,244.96,136.52z"/>
			</g>
		</g>
		<path class="st20" d="M252.93,147.3c0,0,13.04,40.48,14.28,73.42c0,0,4.71,1.3,10.01-5.92c5.3-7.22,2.15-64.38-8.01-73.9
			C269.22,140.9,264.61,139.85,252.93,147.3z"/>
		<path class="st19" d="M255.06,154.38c0,0,2.33-5.42,1.3-9.14c-1.04-3.72-4.7,0-4.7,0S253.14,151.33,255.06,154.38z"/>
		<path class="st19" d="M228.89,144.37c-9.62-4.14-40.71-15.15-40.71-15.15s-20.95-26.95-25.21-30.83c0,0-5.27,2.98-5.63,9.16
			c0,0,13.16,27.01,20.48,35.26c7.31,8.25,44.36,26.09,44.36,26.09L228.89,144.37z"/>
		<path class="st20" d="M236.45,147.3c0,0-13.04,40.48-14.28,73.42c0,0-4.71,1.3-10.01-5.92c-5.3-7.22-2.15-64.38,8.01-73.9
			C220.17,140.9,224.78,139.85,236.45,147.3z"/>
		<path class="st19" d="M234.33,154.38c0,0-2.33-5.42-1.3-9.14c1.04-3.72,4.7,0,4.7,0S236.25,151.33,234.33,154.38z"/>
		<g>
			<path class="st14" d="M302.38,401.14h-25.89c-1.81-10.29,1.08-20.6,1.08-20.6l11.84-2.03c1.08,6.51,2.38,9.07,4.17,10.39
				c0.01,0,0.01,0,0.01,0c1.31,0.95,2.88,1.27,4.83,1.94c2.23,0.78,3.41,2.19,4,3.72C303.58,397.61,302.38,401.14,302.38,401.14z"/>
			<path class="st13" d="M302.41,394.56c-6.38,0.8-20.41,2.17-19.55-1.53c0.71-3.09,6.63-3.92,10.71-4.13c0.01,0,0.01,0,0.01,0
				c1.31,0.95,2.88,1.27,4.83,1.94C300.65,391.62,301.82,393.03,302.41,394.56z"/>
		</g>
		<g>
			<path class="st14" d="M215.67,401.14h-25.89c0,0-0.82-2.42-0.44-4.99c0.31-2.09,1.42-4.27,4.41-5.31
				c2.24-0.78,3.96-1.07,5.37-2.39c1.53-1.44,2.68-4.11,3.64-9.95l11.84,2.03C214.59,380.54,217.47,390.84,215.67,401.14z"/>
			<path class="st13" d="M189.33,396.15c0.31-2.09,1.42-4.27,4.41-5.31c2.24-0.78,3.96-1.07,5.37-2.39
				c3.28,1.01,7.86,2.86,9.28,5.67C210.37,397.98,195.24,397.37,189.33,396.15z"/>
		</g>
	</g>
	<g>
		<g>
			<path class="st7" d="M401.55,399.28c0,1.09-0.11,1.85-0.11,1.85h-31.45c0-0.62,0.01-1.24,0.04-1.85
				c0.36-8.23,2.95-15.37,2.95-15.37l7.86-3.38c0.68,4.05,2.42,6.64,4.61,8.33c0.58,0.46,1.18,0.83,1.8,1.15
				c0.29,0.16,0.58,0.3,0.88,0.43c0.66,0.3,1.33,0.54,2.01,0.74c2.78,0.84,5.58,1.02,7.55,1.32
				C401.04,393.04,401.55,396.92,401.55,399.28z"/>
			<path class="st21" d="M401.55,399.28c0,1.09-0.11,1.85-0.11,1.85h-31.45c0-0.62,0.01-1.24,0.04-1.85H401.55z"/>
			<path class="st21" d="M387.25,390.02l-4.36,1.4l-0.92-1.6l3.49-0.95C386.03,389.32,386.63,389.7,387.25,390.02z"/>
			<path class="st21" d="M390.13,391.2l-2.94,1.95l-1.81-0.71l2.74-1.99C388.78,390.76,389.46,391,390.13,391.2z"/>
		</g>
		<g>
			<path class="st7" d="M281.37,399.28c-0.08,1.07-0.36,1.85-0.36,1.85h-20.95c-0.27-0.61-0.46-1.22-0.59-1.85
				c-2.07-10.03,11.86-22.29,11.86-22.29l4.42,5.9c0,0-0.51,9.44,3.23,11.4C281.23,395.46,281.52,397.68,281.37,399.28z"/>
			<path class="st21" d="M259.48,399.28h21.89c-0.08,1.07-0.36,1.85-0.36,1.85h-20.95C259.8,400.53,259.61,399.92,259.48,399.28z"/>
			<path class="st21" d="M278.03,393.53c0,0-8.83-2.01-12.85,0.59v-1.46C265.18,392.67,272.6,389.06,278.03,393.53z"/>
			<path class="st21" d="M276.28,391.3c0,0-5.64-2.58-11.1,0l0.62-1.47C265.8,389.83,272.33,387.36,276.28,391.3z"/>
		</g>
		<path class="st22" d="M392.06,310.15c0.01,8.43-7.47,77.13-7.47,77.13c-7.48,0.74-13.48-0.76-13.48-0.76
			c-2.05-34.82-2.25-64.76-2.25-64.76l-35.86-26.88l-0.09-0.07c0,0-0.13,0.61-0.38,1.7c-1.78,7.88-9.29,40.9-12.42,48.46
			c-3.56,8.62-42.53,44.85-42.53,44.85c-7.24-1-13.38-6.24-13.38-6.24c13.99-23.2,33.06-46.48,33.06-46.48
			c1.49-8.36,2.55-26.96,3.19-40.86c0.01-0.21,0.02-0.43,0.03-0.64c0.42-9.41,0.63-16.52,0.63-16.52l-6.57-13.48l41.76-15.34
			l9.36,11.98c0,0,2.14,1.99,5.52,5.16c0.16,0.14,0.31,0.29,0.47,0.43C364.17,279.66,392.06,306.38,392.06,310.15z"/>
		<g>
			<path class="st11" d="M300.44,296.25c0.01-0.21,0.02-0.43,0.03-0.64c8.79-4.77,7.32-12.39,7.29-12.47l0.54-0.11
				C308.33,283.11,309.91,291.29,300.44,296.25z"/>
			<path class="st11" d="M332.35,289.5c0.3,1.67,0.52,3.46,0.64,5.38l-0.09-0.07c0,0-0.13,0.61-0.38,1.7
				c-0.39-13.06-5.77-20.77-5.84-20.86l0.46-0.32c0.06,0.07,3.45,4.97,5.1,13.53c6.35-5.64,0.13-17.2,0.07-17.31l0.49-0.27
				C332.86,271.41,339.44,283.65,332.35,289.5z"/>
			<path class="st11" d="M351.63,267.84c-0.01,0.01-0.03,0.01-0.04,0.02c-0.26,0.1-0.56,0.14-0.87,0.14c-3.08,0-8.24-4.31-8.48-4.52
				l0.37-0.42c1.68,1.42,6.35,4.83,8.56,4.34C351.32,267.55,351.48,267.7,351.63,267.84z"/>
		</g>
		<path class="st3" d="M297.45,193.74c0,0,12.7-2.04,19.07,2.01c6.36,4.06,14.72,14.65,14.72,14.65s-9.92,1.31-11.04,8.05
			C320.2,218.45,312.99,201.28,297.45,193.74z"/>
		<path class="st8" d="M278.35,200.36c-5.37,2.9-14.35,13.81-14.76,20.52c-0.4,6.54,4.45,12.56,7.72,17.67
			c10.19,15.96,20.93,30.06,25.49,48.78c0.03,0.12,23.31,9.36,50.64-23.49c0,0-15.44-20.78-20.78-38.47
			c-2.17-7.2-4.38-14.85-8.55-21.19c-4.59-6.99-12.46-11.1-20.65-10.44C290.53,194.3,283.64,197.5,278.35,200.36z"/>
		<path class="st5" d="M276.09,193.67c0,0,3.44,5.87,1.85,9.1c0,0,11.79,4.07,11.79-2.53c0,0-2.22-4.95-1.39-8.14L276.09,193.67z"/>
		<path class="st5" d="M302.3,233.88c0,0-6.56,1.86-8.21,4.19c-1.66,2.32-3.13,7.53-3.13,7.53h11.34l2.13-3.92l2.5-5.23
			L302.3,233.88z"/>
		<g>
			<path class="st7" d="M291.45,187.12c0,0,4.61-1.93,1.63-15.78c-1.97-9.18-4.82-10.55-6.65-10.63c0,0-2.25-3.39-10.05-1.77
				c-5.34,1.11-9.6,4.35-11.48,10.36c-1.96,6.26,1.96,19.69,7.12,21.03L291.45,187.12z"/>
			<path class="st6" d="M292.54,177.76c0,0,2.9-4.04,4-0.06c1.27,4.61-2.68,7.21-3.76,5.85C291.7,182.2,292.54,177.76,292.54,177.76
				z"/>
			<path class="st6" d="M268.26,182.02c0,0-4.05-2.89-3.8,1.23c0.28,4.78,4.86,5.96,5.44,4.33
				C270.48,185.95,268.26,182.02,268.26,182.02z"/>
			<path class="st6" d="M283.55,196.71c7.71-1.27,11.23-7.02,8.74-22.12c-1.29-7.79-6.04-11.91-14.67-10.49
				c-8.63,1.42-11.48,6.8-10.2,14.59C270.1,194.92,275.59,198.03,283.55,196.71z"/>
			<path class="st9" d="M270.86,183.66c-0.01,0.8,0.8,1.45,1.79,1.46c1,0.01,1.81-0.63,1.82-1.43c0.01-0.8-0.79-1.45-1.79-1.46
				C271.68,182.22,270.87,182.86,270.86,183.66z"/>
			<path class="st9" d="M286.79,181.46c0.18,0.78,1.11,1.22,2.08,1c0.97-0.23,1.61-1.04,1.43-1.81c-0.18-0.78-1.11-1.22-2.09-1
				C287.24,179.87,286.6,180.69,286.79,181.46z"/>
			<g>
				<path class="st10" d="M273.03,175.25c-0.08,0-0.15-0.02-0.22-0.07c-0.18-0.12-0.22-0.36-0.1-0.54c1.08-1.58,3.24-1.88,3.33-1.9
					c0.23-0.03,0.41,0.12,0.44,0.34c0.03,0.21-0.12,0.41-0.33,0.44c-0.02,0-1.91,0.27-2.79,1.56
					C273.28,175.19,273.16,175.25,273.03,175.25z"/>
			</g>
			<g>
				<path class="st10" d="M287.54,172.85c-0.08,0-0.16-0.03-0.24-0.08c-1.25-0.94-3.12-0.59-3.14-0.58
					c-0.21,0.05-0.42-0.1-0.46-0.31c-0.04-0.21,0.1-0.42,0.31-0.46c0.09-0.02,2.24-0.43,3.76,0.73c0.17,0.13,0.21,0.37,0.08,0.55
					C287.78,172.8,287.66,172.85,287.54,172.85z"/>
			</g>
			<path class="st10" d="M274.43,179.22c0.16,0.96,0.72,1.66,1.25,1.57c0.53-0.09,0.83-0.93,0.68-1.89
				c-0.16-0.96-0.72-1.66-1.25-1.57C274.58,177.41,274.28,178.26,274.43,179.22z"/>
			<path class="st10" d="M284.73,177.52c0.16,0.96,0.72,1.66,1.25,1.57c0.53-0.09,0.83-0.93,0.68-1.89
				c-0.16-0.96-0.72-1.66-1.25-1.57C284.87,175.72,284.57,176.56,284.73,177.52z"/>
			<path class="st10" d="M287.62,186.21c0,0-6.69,1.79-10.39,1.08c0,0,2.56,3.23,6.22,2.3
				C287.11,188.66,287.62,186.21,287.62,186.21z"/>
			<path class="st4" d="M287.93,167.58c0,0-8.7,6.3-19.62,6.78l0.31,9.72c0,0-10.18-18.75,9.95-22.08
				c20.13-3.32,14.27,17.63,14.27,17.63S292.22,170.6,287.93,167.58z"/>
			<g>
				<path class="st9" d="M280.82,183.6l-0.06-0.84c0.01,0,1.17-0.09,1.47-0.81c0.12-0.3-0.37-1.24-0.81-2.07
					c-0.61-1.16-1.36-2.6-1.68-4.19l0.83-0.17c0.3,1.48,1.02,2.86,1.6,3.97c0.65,1.23,1.11,2.13,0.84,2.79
					C282.51,183.48,280.89,183.6,280.82,183.6z"/>
			</g>
			<path class="st15" d="M292.65,167.61c-14.63-6.35-28.44,6.82-28.44,6.82s-1.61-10.67,1.21-13.17c0.73-0.66,1.52-1.23,2.34-1.74
				c6.46-4.07,15.05-4,19-2.6c0.81,0.29,1.43,0.63,1.79,1C290.88,160.33,292.65,167.61,292.65,167.61z"/>
			<path class="st8" d="M290.88,165.23c0,0-12.29-2.43-23.75,5.15c0,0-0.73-6.88,0.63-10.87c6.46-4.07,15.05-4,19-2.6
				C289.06,159.53,290.88,165.23,290.88,165.23z"/>
			<path class="st17" d="M265.42,173.17c0,0,1.95-8.27,4.57-10.61c4.37-3.88,16.64-5.21,23.08-2.88s0,9.38,0,9.38
				S282.8,161.7,265.42,173.17z"/>
		</g>
		<path class="st6" d="M284.4,228.15c0,0,5.02,7.78,13.58,12.36c0,0,10.7-9.29,24.58-8.45c0,0-11.5,20.75-21.38,23.05
			c-5.19,1.21-23.95-11.22-23.95-11.22S280.97,230.68,284.4,228.15z"/>
		<path class="st3" d="M265.9,214.05c4.6-7.48,15.2,3.58,18.81,11.48c3.61,7.9,6.24,9.58,6.24,9.58s-10.6,4.43-10.52,12.37
			C280.43,247.47,255.87,230.38,265.9,214.05z"/>
		<path class="st5" d="M297.97,237.09c0,0,6.45-6.33,27.68-14.6l-2.74-8.62c2.43-3.2,6.91-3.2,6.91-3.2s10.87,15.35,9,19.94
			C337.65,233.48,314.97,236.48,297.97,237.09z"/>
		<path class="st6" d="M321.22,224.57c0,0,0.17-0.91,0.95-2.01c0.78-1.11,0.57-3.12,0.85-3.75c0.28-0.62,1.95-3.18,3.06-3.67
			c1.11-0.5,2.56-1.31,2.87,0.1c0.31,1.41-1.99,1.01-3.01,3.03c0,0,2.25-0.73,4.04-0.31c1.79,0.42,2.29,2.06,0.09,2
			c-1.76-0.04-4.03,1.21-4.03,1.21s2.3,0.35,1.93,1.4C327.44,224.04,324.64,223.14,321.22,224.57z"/>
	</g>
	<g>
		<path class="st23" d="M164.26,253.47c1.9,4.86,9.67,13.18,9.67,13.18s18.98-11.38,27.74-6.59c8.76,4.79,15.72,7.71,21.4,5.62
			c5.68-2.09-18.68-46.38-18.68-46.38l-31.58-12.05c0,0-0.69,7.99-4.3,9.41c-3.61,1.42-7.46,14.6-7.2,17.1
			C161.58,236.26,164.26,253.47,164.26,253.47z"/>
		<path class="st5" d="M199.79,266.95c0,0-8.14,15.96-24.95,36.4c0,0-1.72,24.31-46.18,62.56l-4.65-3.66
			c0,0,26.47-41.47,31.77-54.19c5.3-12.72-2.93-24.37,21.43-56.53L199.79,266.95z"/>
		<path class="st14" d="M173.87,238.7c-7.01,13.43-9.36,30.59-9.36,30.59l-3.19,8.05c0,0,11.32,6.11,24.4,8.33l5.24-13.88
			L173.87,238.7z"/>
		<path class="st6" d="M210.43,265.69c0,0,3.47,17.58,2.9,44.04c0,0,13.68,20.17,2.39,77.72h-5.92c0,0-4.84-48.96-8.54-62.23
			c-3.7-13.27-17.37-17.34-18.11-57.68L210.43,265.69z"/>
		<g>
			<path class="st13" d="M213.9,284.56c0,0-11.14,2-30.75,1.08l-0.31-2.21l-0.08-0.57l-2.03-14.3c0,0-1.89-2.33-3.83-6.13
				c-0.23-0.44-0.46-0.9-0.68-1.38c-2.64-5.63-4.99-13.81-2.35-22.35l4.14,0.19l0.58,0.03l13.86,0.63l0.59,0.03l4.55,0.21l0.71,0.03
				l2.95,0.13c0,0,15.01,13.51,12.33,38.49l0.19,3.48l0.02,0.57L213.9,284.56z"/>
			<g>
				<path class="st14" d="M178.59,238.93c-0.39,1.14-3.01,9.63-1.69,23.5c-0.23-0.44-0.46-0.9-0.68-1.38
					c-0.99-12.69,1.29-20.61,1.79-22.16c0.07-0.19,0.1-0.28,0.1-0.29l0.52,0.19C178.63,238.81,178.61,238.85,178.59,238.93z"/>
				<path class="st14" d="M213.79,282.51c-3.94,1.01-10.63,1.29-16.98,1.29c-5.7,0-11.1-0.23-13.98-0.37l-0.08-0.57
					c4.99,0.24,18.11,0.76,26.57-0.17l-0.54-8.94c0.13-10.43-3.02-19.33-6.06-25.48c-7.71-1.4-9.83-7.11-10.28-8.72
					c-0.07-0.26-0.1-0.41-0.1-0.42l0.54-0.09c0,0.01,0.04,0.21,0.14,0.54c0.5,1.67,2.56,6.63,9.37,8.05c-2.05-4.01-4-6.75-4.82-7.84
					c-0.24-0.33-0.4-0.52-0.41-0.53l0.42-0.36c0.02,0.02,0.28,0.33,0.7,0.92c2.58,3.5,11.27,16.65,11.05,33.9l0.54,8.89
					c1.48-0.18,2.8-0.4,3.89-0.69L213.79,282.51z"/>
			</g>
		</g>
		<path class="st22" d="M185.43,178.47c-4.42-2.43-36.26,10.05-36.26,10.05s-4.71,8.4-1.77,11.7c2.94,3.29,13.36,1.84,16.55,0
			c3.19-1.84,11.65-3.24,11.65-3.24L185.43,178.47z"/>
		<path class="st16" d="M213.58,151.96c0,0,6.58,2.54,8.98,10.12c2.41,7.58-4.79,26.76-2.3,35.58c2.49,8.82,2.1,25.47-5.66,28.99
			c-7.76,3.52-23.69-2.78-27.11-12.4c-3.42-9.62-1.94-46.08,4.63-58.47C198.7,143.38,212,149.62,213.58,151.96z"/>
		<path class="st22" d="M206.03,184.65c1.73,1.87,6.2-1.46,6.2-1.46s-0.09,16.54-4.9,17.8c-4.81,1.27-17.06-13.03-16.55-16.91
			C191.28,180.2,202.18,180.5,206.03,184.65z"/>
		<path class="st4" d="M187.5,180.52c0,0,4.86,4.13,13.33,6.09c8.47,1.96,13.06-2.02,17.39,3.44c6.5,8.2-4.08,23.31-9.64,31.14
			c-2.07,2.92-6.45,11.02-7.34,18.78c0,0-14.7,4.27-27.37-1.27l-0.95-18.03C172.93,220.67,164.94,196.37,187.5,180.52z"/>
		<path class="st22" d="M202.69,198.06c0,0,6.71-16,8.66-17.02c1.94-1.02,6.88,1.43,7.87,3.62c0.99,2.19,0,6.96,0,6.96
			S213.92,185.57,202.69,198.06z"/>
		<path class="st11" d="M234.85,265.69c-3.05,6.25-10.55,8.05-10.55,8.05s-0.57-0.87-1.52-2.42c-0.1-0.16-0.21-0.33-0.31-0.51
			c-5.9-9.56-23.91-40.15-23.56-56.06c0.41-19.01,12.81-29.44,12.81-29.44c6.3,1.5,8.28,3.22,8.28,3.22s2.12,10.81,0.18,23.83
			c-1.94,13-5.47,16.44-3.7,17.42c1.77,0.97,0,2.91,0,2.91s10.45,14.56,12.4,19.09c1.27,2.95,3.42,7.97,4.76,11.1
			c0.09,0.22,0.18,0.44,0.27,0.64C234.49,264.83,234.85,265.69,234.85,265.69z"/>
		<path class="st6" d="M216.71,188.52c0,0-7.48,5.55-3.12,14.02L234.32,224c-11.38,12.13-12.51,17.11-20.73,22.7l3.12,4.84
			c0,0,28.81-22.14,28.85-27.53C245.58,221.69,227.96,193.79,216.71,188.52z"/>
		<path class="st6" d="M213.13,246.7c0,0-3.95,0.44-6.44,1.06c-2.49,0.62-5.81,1.24-5.91,1.76c-0.1,0.52,5.5,0,5.5,0
			s-4.56,1.87-4.67,2.6c-0.1,0.72,5.81-0.52,5.81-0.52s-3.73,2.28-3.53,2.9c0.21,0.62,4.81-0.93,4.81-0.93s-0.86,2.18-1.74,3.21
			c0,0,0.89,0.49,2.7-1.52c1.81-2.01,4.69-1.36,6.98-3.14C218.91,250.34,215.21,246.43,213.13,246.7z"/>
		<path class="st11" d="M191.94,183.18c0,0-5.69,3.68-9.29,12.56c-3.59,8.88-14.94,25.6-17.59,29.91
			c-2.66,4.32-0.81,27.82-0.81,27.82s-3.33-14.25-4.81-19.8c-1.48-5.55,4.78-19.27,5.72-20c0.94-0.73,5.75,0.6,4.83-4.97
			s11.98-29.57,15.43-30.24C185.43,178.47,190.95,179.5,191.94,183.18z"/>
		<path class="st11" d="M174.35,184.38c-0.1,0.19-0.21,0.38-0.34,0.56c-1.29,1.85-3.69,3.33-3.69,3.33s-4.34,6.08-4.39,6.78
			c-0.04,0.6-7.54,6.04-10.87,5.93h-0.01c-0.46-0.01-0.83-0.13-1.1-0.38c-1.98-1.87,6.73-17.52,8.65-20.89
			c0.12-0.22,0.22-0.39,0.29-0.5c0.04-0.09,0.08-0.14,0.08-0.14s-1.53-5.71,4.86-4.64c5.32,0.88,6.37,5.11,6.93,7.94
			C174.89,183.04,174.7,183.73,174.35,184.38z"/>
		<path class="st6" d="M152.02,190.3c4.39-5.77,19.85-16.97,27.99-20.29l2.04,3.78c0,0-15.73,13.83-19.43,19.75
			c-3.7,5.92-8.27,8.36-12.65,6.39C145.59,197.96,151.09,191.51,152.02,190.3z"/>
		<path class="st22" d="M172.81,183.19l-0.83,0.95l-0.42,0.49l-1.38,1.58c0,0-3.46,4.2-3.33,5.88c0.1,1.21-6.57,6.63-11.79,8.88
			c-2.12,0.92-4.01,1.32-5.11,0.69c-3.77-2.18-2.93-8.72-0.79-13.15c1.87-3.86,10.11-8.85,12.24-10.07
			c0.27-0.17,0.43-0.27,0.49-0.29c0.01-0.01,0.01-0.01,0.01-0.01l0.79-3.06c0,0,2.88-1.73,5.14-0.67c0,0-5,0.21-4.17,2.15
			C164.5,178.53,171.43,183.13,172.81,183.19z"/>
		<g>
			<path class="st6" d="M190.95,167.17c-5.03,2.07-4.31,6.62-8.92,6.62c-2.85,0-3.23-3.26-3.23-3.26c1.29-2.79,2.11-7.54,2.29-9.8
				c0.19-2.26,0.94-1.39,0.94-1.39c0-0.21-0.01-0.41-0.02-0.61c-0.07-1.52-0.34-2.63,0.65-1.98c1.13,0.73,1.52,5.04,1.52,5.04
				c0.93-6.28-0.46-7.22,0.63-6.66c1.49,0.75,1.5,6.31,1.5,6.47c1.2-3.65,0.88-5.74,1.71-4.91c0.84,0.84-0.42,7.55-0.92,10.01
				c-0.11,0.56-0.19,0.9-0.19,0.9C190.91,165.65,190.95,167.17,190.95,167.17z"/>
			<path class="st5" d="M187.11,166.71c-0.11,0.56-0.19,0.9-0.19,0.9s-1.84-0.18-3.19,1.81
				C183.74,169.42,184.12,166.75,187.11,166.71z"/>
			<path class="st5" d="M182.32,163.84c0.03-0.53,0.26-3.59-0.28-4.51c0-0.21-0.01-0.41-0.02-0.61
				C183.17,158.97,182.44,163.2,182.32,163.84z"/>
		</g>
		<path class="st22" d="M185.44,190.33c0,0,3.4-9.21,4.48-11.27c1.08-2.06,6.71-1.7,10.98-0.91c4.26,0.8,5.13,6.5,5.13,6.5
			S193.06,178.53,185.44,190.33z"/>
		<path class="st5" d="M207.32,172.2c0,0-4.07,7.52-4.01,15.86c0,0-6.61,4.5-8.98-1.14c0,0,2.51-7.38,1.3-17.33
			C194.82,162.92,207.32,172.2,207.32,172.2z"/>
		<g>
			<path class="st6" d="M194.34,161.77c0,0-1.21-4.31-3.36-1.28c-2.49,3.51,0.05,6.92,1.38,6.11
				C193.68,165.78,194.34,161.77,194.34,161.77z"/>
			<path class="st6" d="M213.56,172.85c0,0,4.31-1.2,2.84,2.21c-1.71,3.95-5.94,3.55-5.94,1.99
				C210.47,175.49,213.56,172.85,213.56,172.85z"/>
			<path class="st6" d="M196.1,180.56c-6.13-3.45-7.33-9.4-0.57-21.4c3.49-6.19,8.77-8.21,15.64-4.35
				c6.86,3.86,7.61,9.29,4.13,15.48C208.03,183.19,202.43,184.13,196.1,180.56z"/>
			<path class="st9" d="M210.85,173.43c-0.24,0.68-1.12,0.98-1.96,0.68c-0.85-0.3-1.34-1.09-1.1-1.77c0.24-0.68,1.12-0.98,1.96-0.68
				C210.6,171.96,211.09,172.75,210.85,173.43z"/>
			<path class="st9" d="M198.06,166.67c-0.39,0.6-1.32,0.69-2.07,0.2c-0.75-0.49-1.04-1.37-0.65-1.98c0.39-0.6,1.32-0.69,2.07-0.2
				C198.16,165.18,198.45,166.07,198.06,166.67z"/>
			<g>
				<path class="st10" d="M211.73,165.67c-0.16,0-0.3-0.11-0.34-0.27c-0.35-1.37-1.86-2.17-1.88-2.18c-0.17-0.09-0.24-0.3-0.15-0.47
					c0.09-0.17,0.3-0.24,0.47-0.15c0.07,0.04,1.81,0.96,2.23,2.63c0.05,0.19-0.07,0.38-0.25,0.43
					C211.79,165.67,211.76,165.67,211.73,165.67z"/>
			</g>
			<g>
				<path class="st10" d="M203.32,159.68c-0.06,0-0.12-0.02-0.18-0.05c-0.01-0.01-1.49-0.89-2.84-0.47
					c-0.19,0.06-0.38-0.05-0.44-0.23c-0.06-0.19,0.05-0.38,0.23-0.44c1.65-0.5,3.34,0.5,3.41,0.55c0.17,0.1,0.22,0.32,0.12,0.48
					C203.55,159.62,203.44,159.68,203.32,159.68z"/>
			</g>
			<path class="st10" d="M209.2,168.58c-0.43,0.76-1.12,1.18-1.54,0.95c-0.42-0.24-0.42-1.05,0.01-1.81
				c0.43-0.76,1.12-1.18,1.54-0.95C209.63,167.01,209.63,167.82,209.2,168.58z"/>
			<path class="st10" d="M200.61,163.97c-0.43,0.76-1.12,1.18-1.54,0.95c-0.42-0.24-0.42-1.05,0.01-1.81
				c0.43-0.76,1.12-1.18,1.54-0.95C201.04,162.4,201.04,163.21,200.61,163.97z"/>
			<path class="st10" d="M197.63,171.78c0,0,3.52,2.68,6.06,2.76c0,0-2.7,2.2-4.64,0.77C197.1,173.89,197.63,171.78,197.63,171.78z"
				/>
			<path class="st10" d="M207.35,167.04c0,0,1.61-1.56,2.27-1.01c0.66,0.55,0.31,2.47,0.31,2.47l1.41,0.04l-1.17-0.47
				c0,0,0.38-1.99-0.35-2.41C208.8,165.07,207.35,167.04,207.35,167.04z"/>
			<path class="st10" d="M201.27,163.92c0,0,0.5-2.19-0.31-2.47c-0.81-0.28-2.27,1.01-2.27,1.01l-0.76-1.19l1.01,0.75
				c0,0,1.51-1.36,2.24-0.95C202.21,161.66,201.27,163.92,201.27,163.92z"/>
			<path class="st16" d="M212.79,157.38c0,0-2.19-3.05-5.23-0.63c-3.03,2.42-9.87,6.3-13.23,5.02c-3.36-1.28,7.36-15.61,16.67-11.41
				c9.31,4.2,8.47,17.86,4.6,22.2c-3.87,4.34-2.04,0.3-2.04,0.3s0.26-6.16,1.55-10.25C216.41,158.52,212.79,157.38,212.79,157.38z"
				/>
			<g>
				<path class="st9" d="M202.47,170.38c-0.17,0-0.35-0.02-0.53-0.07l0.19-0.74c0.63,0.16,0.93-0.11,1.08-0.36
					c0.21-0.36,0.18-0.82,0.01-0.99c-0.1-0.1-0.26-0.09-0.49,0.03l-0.35-0.67c0.77-0.4,1.23-0.05,1.39,0.12
					c0.42,0.44,0.46,1.27,0.09,1.9C203.57,170.11,203.07,170.38,202.47,170.38z"/>
			</g>
		</g>
		<g>
			<path class="st22" d="M247.34,223.15c-0.37,5.38-13.69,22.92-15.91,23.54c-0.58,0.16-1.17,0.48-1.72,0.85
				c-0.23,0.17-0.47,0.34-0.69,0.52c-1.27,1.02-2.22,2.2-2.22,2.2c-3.89-0.26-14.8-5.31-11.29-6.42c0.21-0.07,0.44-0.19,0.7-0.37
				c0.14-0.1,0.3-0.21,0.46-0.36c4.13-3.46,12.17-17.52,12.22-18.59c0.04-1.17,1.43-1.39,1.43-1.39s-7.58-11.14-11.98-12.48
				c-4.4-1.34-6.62-6.66-6.62-6.66c-4.34-18.37,8.28-15.49,8.28-15.49C229.31,194.06,247.71,217.76,247.34,223.15z"/>
			<g>
				<path class="st23" d="M229.71,247.54c-0.23,0.17-0.47,0.34-0.69,0.52c-5.96-0.41-10.96-3.34-12.81-4.59
					c0.14-0.1,0.3-0.21,0.46-0.36C218.66,244.42,223.74,247.32,229.71,247.54z"/>
			</g>
		</g>
		<g>
			<path class="st23" d="M174.35,184.38c-0.1,0.19-0.21,0.38-0.34,0.56c-0.85-0.03-1.67-0.13-2.44-0.3
				c-3.94-0.8-6.97-3.01-8.96-4.93c-0.46-0.44-0.85-0.87-1.2-1.25c0.27-0.17,0.43-0.27,0.49-0.29c0.29,0.32,0.62,0.68,1,1.04
				c1.98,1.94,5.05,4.21,9.09,4.94C172.74,184.29,173.52,184.37,174.35,184.38z"/>
		</g>
		<g>
			<path class="st23" d="M233.92,263.51c-1.83,3.1-5.22,6.84-11.14,7.81c-0.1-0.16-0.21-0.33-0.31-0.51
				c6.07-0.91,9.44-4.85,11.18-7.94C233.74,263.09,233.83,263.31,233.92,263.51z"/>
		</g>
		<g>
			<path class="st8" d="M132.88,364.53c0,0-1.39,1.37-2.83,3.87c-1.44,2.51,0.14,4.82-6.84,10.64c0,0-14.09-8.25-20.45-18.85
				c0,0,0.11-3.03,3.19-3.74c1.65-0.38,6.21,1.75,10.58,2.58c0.62,0.11,1.24,0.21,1.85,0.26c0.77,0.07,1.52,0.08,2.24-0.01
				c0.67-0.07,1.3-0.21,1.89-0.46h0.01c1.49-0.61,2.66-1.82,3.28-3.94c0,0,3.74,2.13,1.24,5.74
				C127.04,360.61,131.48,358.67,132.88,364.53z"/>
			<path class="st3" d="M123.21,379.04c0,0-14.09-8.25-20.45-18.85c0,0,2.36-0.5,4.32,3.01
				C109.03,366.72,124.35,374.7,123.21,379.04z"/>
			<path class="st3" d="M123.26,362.37c-1.14,1.81-1.12-1.53-2.64-3.1c0.67-0.07,1.3-0.21,1.89-0.46h0.01
				C123.2,359.55,124.16,360.96,123.26,362.37z"/>
			<path class="st3" d="M118.83,362.47c-1.21,1.14-1.6-1.84-2.31-3.44c0.62,0.11,1.24,0.21,1.85,0.26
				C119.09,360.25,119.75,361.59,118.83,362.47z"/>
		</g>
		<g>
			<path class="st8" d="M219.55,401.14h-19.93c0,0-0.83-2.78,0-5.83c0.36-1.32,2.42-2.55,4.34-4.27c0.53-0.48,1.04-0.98,1.52-1.54
				c0.38-0.44,0.72-0.93,1.01-1.45c0.37-0.63,0.66-1.32,0.82-2.08c0.32-1.51,0.2-3.29-0.67-5.42c0,0,6.78-1.42,9.2,2.28
				c0,0,0.23-1.71,2.39-0.57c0,0-0.31,3.43,0.11,6.31C218.78,391.42,221.45,392.25,219.55,401.14z"/>
			<path class="st3" d="M214.37,389.13c-0.18,0.2-0.42,0.3-0.67,0.3c-0.21,0-0.41-0.07-0.59-0.2c-1.03-0.82-3.31-2.1-6.62-1.2
				c0.37-0.63,0.66-1.32,0.82-2.08c1.33-0.49,3.84-0.78,6.94,1.87C214.66,388.16,214.71,388.75,214.37,389.13z"/>
			<path class="st3" d="M212.69,392.44l-0.11,0.17c-0.27,0.41-0.8,0.54-1.22,0.3c-1.35-0.8-4.4-2.31-7.39-1.88
				c0.53-0.48,1.04-0.98,1.52-1.54c1.48-0.34,4.26-0.53,7.01,1.74C212.85,391.53,212.95,392.05,212.69,392.44z"/>
		</g>
	</g>
</g>
<g id="DESIGNED_BY_FREEPIK" class="st0">
</g>
</svg>
